<svg xmlns="http://www.w3.org/2000/svg" viewBox="0 0 384 512" role="img" aria-labelledby="title desc">
  <title id="title">Childcare Navigator logo</title>
  <desc id="desc">A dark teal house outline above a red dashed path.</desc>
  <g fill="none" stroke-linecap="round" stroke-linejoin="round">
    <path d="M32 306V265c0-9 4-17 11-23l132-104c10-8 24-8 34 0l132 104c7 6 11 14 11 23v41" stroke="#183c46" stroke-width="25"/>
    <path d="M76 212v-61h52v20" stroke="#183c46" stroke-width="25"/>
    <path d="M32 369v63c0 27 22 49 49 49h222c27 0 49-22 49-49v-63" stroke="#183c46" stroke-width="25"/>
    <path d="M154 481V370" stroke="#183c46" stroke-width="25"/>
    <path d="M230 481V370" stroke="#183c46" stroke-width="25"/>
    <path d="M19 337h18M73 337h28M137 337h28M201 337h28M265 337h28M329 337h36" stroke="#d73c36" stroke-width="13"/>
  </g>
</svg>
